<svg id="Layer_1" data-name="Layer 1" xmlns="http://www.w3.org/2000/svg" viewBox="0 0 70.51 66.38"><defs><style>.cls-1{fill:#fff;}</style></defs><title>KAIMS Assets</title><path class="cls-1" d="M40.23,66.36,40,66.2a1,1,0,0,1,0-1.55c.13-.11.28-.2.44-.31a.88.88,0,0,1-.36-1,2,2,0,0,1,.56-.94s0,0-.06-.06A1.82,1.82,0,0,1,40,60.45a1.69,1.69,0,0,1,1.37-1.35,2.05,2.05,0,0,1,1.29.14l.44.2a.54.54,0,0,0,.77-.24c0-.07.05-.15.09-.22s.1-.11.15-.17.11.14.11.21a1.16,1.16,0,0,1-.64,1.18,1.71,1.71,0,0,1,.08,1,1.69,1.69,0,0,1-1.51,1.44,4.5,4.5,0,0,1-1,0,.57.57,0,0,0-.67.49.48.48,0,0,0,.43.64c.38.06.78.07,1.17.1a10.73,10.73,0,0,1,1.14.07.84.84,0,0,1,.76.89,1.5,1.5,0,0,1-.81,1.49l-.12.07ZM43,61a2.67,2.67,0,0,0-.32-1.18,1,1,0,0,0-.95-.5,1,1,0,0,0-.86.61,2.32,2.32,0,0,0,.11,2,1,1,0,0,0,1,.48.9.9,0,0,0,.85-.64A4.66,4.66,0,0,0,43,61Zm-1.37,5.39a3.35,3.35,0,0,0,1.3-.3,1,1,0,0,0,.57-1,.42.42,0,0,0-.34-.43,3,3,0,0,0-.5-.06c-.58,0-1.17-.06-1.74-.12a.53.53,0,0,0-.52.21,1,1,0,0,0,.41,1.5A5.66,5.66,0,0,0,41.61,66.38Z"/><path class="cls-1" d="M37.62,24.73a3.94,3.94,0,0,0-.26-.4.5.5,0,0,0-.61-.17.78.78,0,0,0-.57.73.83.83,0,0,0,.53.86.23.23,0,0,1,.11.16,1.16,1.16,0,0,1-.46.9c-.2.16-.33.13-.46-.09a1.65,1.65,0,0,1-.16-1.15,1.92,1.92,0,0,1,.51-1.15.25.25,0,0,0,0-.25.23.23,0,0,0-.23-.06,2,2,0,0,0-.58.36,3.47,3.47,0,0,0-.86,2.17.57.57,0,0,1-.11.29,2.43,2.43,0,0,1-.48.43.35.35,0,0,1-.56-.15,1,1,0,0,1-.08-.91,11.82,11.82,0,0,0,1-4,2.29,2.29,0,0,0-.13-1.07c-.14-.33-.35-.36-.56-.07a6.31,6.31,0,0,0-1.09,2.62,14.73,14.73,0,0,0-.25,3.11.76.76,0,0,1-.14.49c-.19.24-.4.47-.6.71a.24.24,0,0,1-.11.06c-.1,0-.23.07-.3,0s-.07-.19-.06-.28a2.94,2.94,0,0,1,.52-1.31s.06-.11,0-.15c-.11-.29-.23-.57-.35-.86l-1.08.24,0-.21L29,25.83c0,.41,0,.81-.09,1.21a7.19,7.19,0,0,1-.47,2.05,1.73,1.73,0,0,1-.25.41.27.27,0,0,1-.21.07.19.19,0,0,1-.08-.17c0-.36.06-.71.1-1.06.09-.66.19-1.32.28-2v-.11l-1.54.48v0a.63.63,0,0,1,.17.64c-.09.67-.15,1.35-.24,2a.7.7,0,0,1-.16.35.93.93,0,0,1-1.3,0,3.36,3.36,0,0,1-.69-1.22c-.17-.43-.33-.87-.51-1.3a3.1,3.1,0,0,0-.31-.5s0,0,0,0A25.81,25.81,0,0,0,26,23.87a9.09,9.09,0,0,1,2.12-2.21A3.38,3.38,0,0,1,29.51,21a.57.57,0,0,1,.72.57c0,.38.22.5.57.34a1.33,1.33,0,0,0,.33-2.15,1.88,1.88,0,0,0-2.07-.42,5.77,5.77,0,0,0-2.51,1.82,17.81,17.81,0,0,0-1.68,2.52c-.4.68-.82,1.35-1.27,2a2.64,2.64,0,0,1-1.33,1,4,4,0,0,1-.47.12l.71-4.91h-.73c-.05,0-.1.07-.14.11a5.78,5.78,0,0,1-.66.65,1.31,1.31,0,0,1-1.51.13l-.5,2.4a3.54,3.54,0,0,0,2.28-1.09c-.06.31-.11.59-.16.87-.17,1-.31,2.06-.51,3.08a6,6,0,0,1-.81,2.24,2,2,0,0,1-1.41,1c-.06,0-.12.1-.14.17-.16.59-.3,1.17-.45,1.76a.33.33,0,0,1-.07.16V0H52.81V22.26a.53.53,0,0,0-.53-.28,1.43,1.43,0,0,0-.57.23,3.85,3.85,0,0,0-.55.52c-.1.1-.18.25-.36.17a.38.38,0,0,1-.2-.42,4.32,4.32,0,0,1,1-2.05.17.17,0,0,0,0-.18c-.08-.17-.19-.33-.28-.5a.17.17,0,0,0-.23-.1c-.37.11-.74.19-1.12.29l0-.25c-.36.09-.71.16-1.06.26,0,0-.08.13-.09.2-.14.74-.25,1.47-.41,2.2A7.61,7.61,0,0,1,48,23.46a.7.7,0,0,1-.19.27.23.23,0,0,1-.19.07.21.21,0,0,1-.06-.17,7,7,0,0,1,.13-.92c.13-.65.28-1.29.42-1.94,0-.07,0-.15,0-.26l-1.34.27,0,.53c-.05,0-.06,0-.07,0a1.06,1.06,0,0,0-1.37.19,3.68,3.68,0,0,0-1.18,2.42,4.32,4.32,0,0,0,0,.5c0,.43-.3.56-.57.73a.68.68,0,0,1-.8,0c-.17-.13-.33-.29-.48-.43.28-.25.56-.45.81-.7a2.36,2.36,0,0,0,.73-1.52.56.56,0,0,0-.49-.65,1.62,1.62,0,0,0-1.14.23l.22-.47a4.42,4.42,0,0,0,.45-2.81,1.7,1.7,0,0,0-.22-.62c-.18-.27-.44-.27-.59,0a6,6,0,0,0-.45,1.08,31.31,31.31,0,0,0-.8,3.73l0,.18c0,.17,0,.4-.11.49A3,3,0,0,1,40,24a1.92,1.92,0,0,1,.65-1.56c-.37,0-.72,0-1.07,0a.21.21,0,0,0-.16.12c-.09.21-.19.42-.26.63A2.12,2.12,0,0,1,37.62,24.73Zm-9.19-.43-.74.16c-.46.09-.46.09-.52.55,0,.24-.06.48-.09.75l1.1-.25s.09-.05.09-.08C28.33,25.06,28.38,24.7,28.43,24.3Z"/><path class="cls-1" d="M21.3,39.05l1.82-.81,14.2-6.38,11.11-5a15.29,15.29,0,0,0,3-1.72,5.15,5.15,0,0,0,1.34-1.49l.05-.07V48.23H17.69V34.49c0-.16,0-.23.2-.27A4.35,4.35,0,0,0,20,33a4,4,0,0,0,.95-1.8c.27-1,.49-2.12.72-3.18,0-.19.08-.3.31-.31a1.82,1.82,0,0,0,1-.39,2.06,2.06,0,0,1,.39.8c.15.59.26,1.19.4,1.78a4,4,0,0,0,.63,1.42,1,1,0,0,0,1.33.37,3.23,3.23,0,0,0,.67-.44,5.22,5.22,0,0,0,.46-.48.78.78,0,0,0,1.05.18,2.25,2.25,0,0,0,.88-.85A8.49,8.49,0,0,0,30,27c0-.22.13-.31.33-.33l.23,0c-.16.48-.35,1-.5,1.45a3.36,3.36,0,0,0-.13,1.3,1.55,1.55,0,0,0,0,.21.54.54,0,0,0,.76.44,1.81,1.81,0,0,0,.66-.38,10.92,10.92,0,0,0,.77-.89l.3-.4c.09.18.15.34.24.49a.59.59,0,0,0,.89.25,4.24,4.24,0,0,0,.79-.68,5.53,5.53,0,0,0,.43-.61l.06.11a.93.93,0,0,0,1.18.49,2,2,0,0,0,1.18-1.17,4.29,4.29,0,0,0,.37-1.57.31.31,0,0,1,.24-.34c.32-.12.64-.26,1-.4a9.24,9.24,0,0,1,0,1.05.77.77,0,0,1-.25.39c-.09.09-.18.05-.18-.1a.51.51,0,0,0-.22-.51c-.12-.07-.22,0-.29.12A1.66,1.66,0,0,0,37.63,27a.65.65,0,0,0,.36.46,1.32,1.32,0,0,0,1.61-.3,2.27,2.27,0,0,0,.55-1.4c0-.34,0-.68,0-1.05l.43-.17-.26,2.6,1.23-.52-.16-.76.05,0a1.71,1.71,0,0,0,1.56.46,1.9,1.9,0,0,0,1.39-.88,1,1,0,0,0,1.15.35,2.08,2.08,0,0,0,1-.61l.11-.13c.52.42.84.4,1.28-.09a4.54,4.54,0,0,0,1-1.85c.18-.57.3-1.16.44-1.75a.19.19,0,0,1,.15-.18l.59-.15-.09.22a8.31,8.31,0,0,0-.6,2,3,3,0,0,0,0,.42.89.89,0,0,0,1.24.75,1.84,1.84,0,0,0,1.19-1.1.86.86,0,0,1,.2-.33.3.3,0,0,1,.26,0c.06,0,.11.15.1.21a1.41,1.41,0,0,1-.19.39,4.59,4.59,0,0,1-1.47,1.19,26.19,26.19,0,0,1-3.83,1.59l-14.24,5L23,34.71a.37.37,0,0,0-.25.25l-1.41,3.9S21.33,39,21.3,39.05Z"/><path class="cls-1" d="M2.38,64.25l-1.86.08a1.34,1.34,0,0,1-.2,0,.23.23,0,0,1-.14-.09.23.23,0,0,1,0-.16A.36.36,0,0,1,.36,64,1,1,0,0,0,1,63.06c0-.14,0-.28,0-.42v-5.1q0-.3,0-.6a.76.76,0,0,0-.61-.69,1.55,1.55,0,0,1-.23-.06S0,56.08,0,56a.25.25,0,0,1,.13-.14.59.59,0,0,1,.23,0,33.62,33.62,0,0,0,4.6,0c.31,0,.35,0,.32.33s-.06.74-.1,1.11c0,.07-.07.12-.12.18a1.27,1.27,0,0,0-.13-.19v0c0-.62-.19-.85-.79-.89s-1.25,0-1.87,0c-.3,0-.42.14-.42.45v2.54c0,.36,0,.41.42.4s1,0,1.46,0a.73.73,0,0,0,.7-.59A.51.51,0,0,1,4.5,59a.93.93,0,0,1,.15-.13c0,.06.09.12.09.18s0,.26,0,.39c0,.51,0,1,0,1.52,0,.13,0,.31-.12.33s-.15-.17-.19-.29,0-.07,0-.11a.62.62,0,0,0-.59-.58c-.58,0-1.16,0-1.75,0-.15,0-.22.1-.22.25s0,.43,0,.65V63c0,.09,0,.19,0,.29,0,.34.16.51.5.54A4.65,4.65,0,0,0,5,63.37a2.1,2.1,0,0,0,.66-.6.83.83,0,0,1,.21-.16.92.92,0,0,1,.05.28,1.67,1.67,0,0,1-1.11,1.38,2.91,2.91,0,0,1-.72,0C3.57,64.31,3.07,64.28,2.38,64.25Z"/><path class="cls-1" d="M25.92,60a8.36,8.36,0,0,1,.87-.59,1.63,1.63,0,0,1,2.45,1.26,17.41,17.41,0,0,1,.08,1.78c0,.36,0,.73,0,1.09a.57.57,0,0,0,.57.53c.12,0,.32,0,.29.19s-.2.11-.32.11c-.56,0-1.11,0-1.66,0a.83.83,0,0,1-.21-.06c0-.07,0-.17.1-.2a1,1,0,0,0,.4-.89l0-2.19a2.38,2.38,0,0,0-.06-.37,1,1,0,0,0-.75-.9,1.47,1.47,0,0,0-1.45.3,1,1,0,0,0-.31.7c0,.87,0,1.75,0,2.63a.65.65,0,0,0,.68.68s.09,0,.12,0l.17.16c-.07,0-.13.13-.2.13-.24,0-.48,0-.72,0l-1.17,0a.78.78,0,0,1-.25-.07.64.64,0,0,1,.14-.22.91.91,0,0,0,.4-.75c0-.62,0-1.25,0-1.87,0-1.52,0-3,0-4.57a1.35,1.35,0,0,0,0-.28.35.35,0,0,0-.37-.31,1.75,1.75,0,0,1-.24,0,.2.2,0,0,1-.11-.13s0-.08.08-.12.06,0,.08,0a3.48,3.48,0,0,0,1.16-.48.31.31,0,0,1,.24,0,.32.32,0,0,1,.08.24c0,1.11,0,2.23-.07,3.34C25.91,59.31,25.92,59.63,25.92,60Z"/><path class="cls-1" d="M50.2,64.25,48,64.33c-.07,0-.15,0-.22-.09s.07-.19.13-.22a1.14,1.14,0,0,0,.66-1.18V57.58q0-.3,0-.6a.81.81,0,0,0-.65-.74c-.05,0-.1,0-.13-.05s-.12-.12-.11-.17.1-.12.15-.12c.2,0,.39,0,.58,0l1.53,0h.2s.12,0,.13.08a.18.18,0,0,1,0,.17,1,1,0,0,1-.27.14.71.71,0,0,0-.45.6,3.59,3.59,0,0,0,0,.47v5.71a1.23,1.23,0,0,0,0,.27c.06.3.18.43.47.46a4.57,4.57,0,0,0,2.72-.49,2.18,2.18,0,0,0,.48-.43c.07-.06.12-.14.18-.2a.91.91,0,0,1,.13-.08.37.37,0,0,1,.07.16,1.74,1.74,0,0,1-.39,1,1.31,1.31,0,0,1-1.1.56l-1.8-.06Z"/><path class="cls-1" d="M8,60c.25-.19.45-.36.68-.51a1.68,1.68,0,0,1,2,0,1.83,1.83,0,0,1,.69,1.43c0,.73,0,1.47,0,2.2a2,2,0,0,0,0,.43A.58.58,0,0,0,12,64h.11c.11,0,.21,0,.19.19s-.12.13-.22.12l-1.51,0c-.1,0-.2,0-.29,0a.2.2,0,0,1-.16-.07c0-.05,0-.12,0-.18a.16.16,0,0,1,.07-.07.72.72,0,0,0,.36-.65c0-.88,0-1.76-.06-2.63a.94.94,0,0,0-.08-.32,1.1,1.1,0,0,0-1.31-.75A1.14,1.14,0,0,0,8,61c0,.77,0,1.53,0,2.29a.67.67,0,0,0,.28.65,1.47,1.47,0,0,0,.37.13,1.43,1.43,0,0,1,.22,0,.17.17,0,0,1,.09.13.16.16,0,0,1-.09.13,1,1,0,0,1-.24,0H6.83a1.13,1.13,0,0,1-.24-.08c0-.07.07-.17.14-.22a.83.83,0,0,0,.41-.72c0-1,0-2,0-2.92,0-.43-.13-.54-.57-.57a.23.23,0,0,1-.12,0s-.11-.08-.11-.13.06-.1.1-.12l1.24-.49c.2-.08.25-.06.26.17S8,59.71,8,60Z"/><path class="cls-1" d="M35,60c.24-.18.44-.36.67-.5a1.66,1.66,0,0,1,2,0,1.8,1.8,0,0,1,.68,1.42c0,.72,0,1.45,0,2.18,0,.15,0,.3,0,.45A.59.59,0,0,0,39,64h.11c.11,0,.21,0,.19.18s-.12.14-.22.13a7.83,7.83,0,0,0-1.81,0,.17.17,0,0,1-.15-.07s0-.11,0-.16a.12.12,0,0,1,0,0,.92.92,0,0,0,.41-.91l0-2.16c0-.13,0-.25-.06-.37a1.1,1.1,0,0,0-1.36-1A1.13,1.13,0,0,0,35,61c0,.75,0,1.49,0,2.24a1.65,1.65,0,0,0,.1.5.61.61,0,0,0,.53.33.59.59,0,0,1,.23,0,.2.2,0,0,1,.1.15s-.07.1-.12.12a.67.67,0,0,1-.2,0H33.87a.36.36,0,0,1-.24-.07c-.06-.1,0-.17.13-.22a.82.82,0,0,0,.41-.72c0-1,0-2,0-2.94,0-.41-.14-.52-.55-.55a.36.36,0,0,1-.15,0,.2.2,0,0,1-.1-.13.17.17,0,0,1,.1-.12,4.52,4.52,0,0,0,1.25-.49c.19-.09.24-.06.25.15s0,.25,0,.38Z"/><path class="cls-1" d="M63.14,61.25a2.79,2.79,0,0,0,.77,2.18,1.6,1.6,0,0,0,1.72.28,6,6,0,0,0,.66-.35l.25-.14.06,0a1,1,0,0,1-.12.26,2.39,2.39,0,0,1-1.71.92,2.15,2.15,0,0,1-2.35-1.85,3.07,3.07,0,0,1,.69-2.78,1.85,1.85,0,0,1,3,.1,2.06,2.06,0,0,1,.45,1c0,.32,0,.37-.33.37h-3Zm0-.3h1.75a3,3,0,0,0,.43,0c.2,0,.26-.11.25-.31a1.34,1.34,0,0,0-.91-1.13,1,1,0,0,0-1.07.26A1.88,1.88,0,0,0,63.17,61Z"/><path class="cls-1" d="M23.24,60.57,23,60.25a1.72,1.72,0,0,0-1.35-.71,1.13,1.13,0,0,0-1.12.67,2.91,2.91,0,0,0-.24,1.62,2.41,2.41,0,0,0,.52,1.36,1.84,1.84,0,0,0,2.4.36l.5-.31.17-.09,0,0a1.19,1.19,0,0,1-.08.2,2.51,2.51,0,0,1-3.21.8,2.34,2.34,0,0,1-1.13-1.81,2.92,2.92,0,0,1,.24-1.77,2.51,2.51,0,0,1,3.19-1.32c.35.1.41.21.41.56v.51a1.62,1.62,0,0,1,0,.2Z"/><path class="cls-1" d="M59.36,63.25a1.51,1.51,0,0,0,.13-.22c.29-.65.59-1.3.86-2a4.35,4.35,0,0,0,.25-.94c.06-.35-.06-.48-.41-.57-.1,0-.28,0-.25-.18s.19-.09.29-.1h1.28c.05,0,.11,0,.14,0a.19.19,0,0,1,.11.12s0,.12-.08.12c-.34.07-.45.36-.57.63l-1.47,3.28c-.11.25-.21.5-.34.74a1.31,1.31,0,0,1-.22.25,1.16,1.16,0,0,1-.2-.25c-.51-1.26-1-2.51-1.5-3.77L57.21,60a.92.92,0,0,0-.51-.48c-.06,0-.1-.12-.15-.18s.14-.09.21-.09h1.71c.08,0,.15.07.22.1l-.18.17-.11,0c-.29.07-.39.23-.28.52s.32.85.49,1.28L59.24,63Z"/><path class="cls-1" d="M14.21,60c.09-.1.16-.2.25-.29a5.16,5.16,0,0,1,.48-.46.73.73,0,0,1,1.07.25.53.53,0,0,1-.3.65.23.23,0,0,1-.11,0,.83.83,0,0,1-.16-.09.79.79,0,0,0-1.26.67c0,.88,0,1.76,0,2.65a.66.66,0,0,0,.68.65c.12,0,.3,0,.28.17s-.18.13-.3.13H13a.74.74,0,0,1-.22-.08c0-.07.06-.16.12-.2a1,1,0,0,0,.46-.9V60.37c0-.37-.17-.53-.54-.55-.11,0-.26,0-.28-.12s.14-.14.24-.19c.35-.14.7-.27,1-.43s.32-.12.32.21V60Z"/><path class="cls-1" d="M67.47,63.27c0-.19,0-.38,0-.57s.07-.11.11-.16.11.08.12.13.07.32.12.47a1.25,1.25,0,0,0,.85.93A1,1,0,0,0,70,63.22a.64.64,0,0,0-.22-.6,4.45,4.45,0,0,0-.66-.48c-.27-.17-.57-.29-.84-.46a1.29,1.29,0,0,1-.6-1.54,1.27,1.27,0,0,1,1.21-1,5,5,0,0,1,1,.08c.3.06.36.18.37.48s0,.33,0,.49a1.13,1.13,0,0,1-.08.24,1,1,0,0,1-.15-.2A1.19,1.19,0,0,0,69,59.44a.72.72,0,0,0-.84.74.64.64,0,0,0,.3.51c.31.22.64.41,1,.61l.16.08a1.44,1.44,0,0,1,.91,1.8,1.57,1.57,0,0,1-1.63,1.26,3.25,3.25,0,0,1-.74-.2c-.15,0-.28-.11-.42-.16a.26.26,0,0,1-.18-.27v-.54Z"/><path class="cls-1" d="M55.38,61.23v1.86a2.58,2.58,0,0,0,0,.39A.65.65,0,0,0,56,64h.14c.1,0,.23,0,.21.17s-.13.14-.23.13-.37,0-.56,0c-.45,0-.9,0-1.35,0a.6.6,0,0,1-.21-.08c0-.07.06-.17.12-.21a.86.86,0,0,0,.43-.78V60.41a1.1,1.1,0,0,0,0-.18.42.42,0,0,0-.46-.4c-.12,0-.29,0-.3-.12s.17-.15.28-.2.51-.2.77-.3c.09,0,.18-.1.27-.15.25-.12.31-.08.31.21v2Z"/><path class="cls-1" d="M18.06,61.26c0,.69,0,1.37,0,2.06a.65.65,0,0,0,.7.7h.06c.09,0,.22,0,.21.16s-.13.15-.24.14l-1.62,0c-.11,0-.22,0-.33,0a.22.22,0,0,1-.17-.09.21.21,0,0,1,.07-.16,1.06,1.06,0,0,0,.5-1.1c0-.77,0-1.55,0-2.32a3.42,3.42,0,0,0,0-.45.4.4,0,0,0-.39-.38.22.22,0,0,1-.08,0c-.09,0-.27-.06-.28-.12s.15-.15.25-.2l.82-.32.24-.12c.26-.13.31-.1.31.19v2Z"/><path class="cls-1" d="M32.14,61.19v1.74a3.22,3.22,0,0,0,0,.43.65.65,0,0,0,.7.66s.08,0,.1,0l.17.16c-.07,0-.14.13-.21.13s-.4,0-.61,0l-1.33,0a.74.74,0,0,1-.22-.08c0-.07.06-.17.12-.21a.83.83,0,0,0,.43-.74c0-1,0-2,0-3,0-.33-.16-.44-.49-.46-.11,0-.26,0-.27-.12s.15-.15.24-.19l.9-.36.24-.13c.18-.07.24,0,.24.16,0,.67,0,1.34,0,2Z"/><path class="cls-1" d="M46.6,22.73a1.55,1.55,0,0,1-.76,1,.64.64,0,0,1-.31.06.26.26,0,0,1-.28-.28,1.41,1.41,0,0,1,.49-1.12.32.32,0,0,1,.21-.08c.11,0,.17.06.16.19s0,.21,0,.23a.92.92,0,0,0,.33.06A.73.73,0,0,0,46.6,22.73Z"/><path class="cls-1" d="M31.8,57.88a.62.62,0,0,1-.5-.67.29.29,0,0,1,.05-.13c.14-.14.27-.37.43-.4s.33.22.42.41a.43.43,0,0,1,0,.35A.7.7,0,0,1,31.8,57.88Z"/><path class="cls-1" d="M55,57.88a.6.6,0,0,1-.48-.7,2.19,2.19,0,0,1,.34-.46.15.15,0,0,1,.25,0,2.31,2.31,0,0,1,.31.39.39.39,0,0,1,0,.3A.76.76,0,0,1,55,57.88Z"/><path class="cls-1" d="M17.19,57.26a1,1,0,0,1,.42-.58.22.22,0,0,1,.19,0,1.81,1.81,0,0,1,.32.41.41.41,0,0,1,0,.27.59.59,0,0,1-.12.2c-.11.14-.2.33-.44.26A.72.72,0,0,1,17.19,57.26Z"/><path class="cls-1" d="M42.27,20.17a4.12,4.12,0,0,1-.43,1.63A3.59,3.59,0,0,1,42.27,20.17Z"/><path class="cls-1" d="M41.48,23.78l.58-.37c.11-.06.28-.1.33,0s0,.25-.08.36-.12.09-.19.14v-.16c0-.13-.08-.17-.2-.12l-.4.18Z"/><path class="cls-1" d="M33.54,23.29l-.35,1.95h0a7.28,7.28,0,0,1,.3-2Z"/><path class="cls-1" d="M37.11,25c-.06.05-.1.1-.14.1a.17.17,0,0,1-.1-.1.13.13,0,0,1,.1-.09S37.05,24.91,37.11,25Z"/></svg>